<?xml version="1.0" standalone="no"?><!DOCTYPE svg PUBLIC "-//W3C//DTD SVG 1.1//EN" "http://www.w3.org/Graphics/SVG/1.1/DTD/svg11.dtd"><svg t="1694843157824" class="icon" viewBox="0 0 1024 1024" version="1.1" xmlns="http://www.w3.org/2000/svg" p-id="4592" xmlns:xlink="http://www.w3.org/1999/xlink" width="200" height="200"><path d="M959.835125 97.35181S859.657321 161.279685 736.085562 161.279685 512.335999 132.659741 512.335999 97.35181s100.177804-63.927875 223.749563-63.927875 223.749563 63.927875 223.749563 63.927875z" fill="#009245" p-id="4593"></path><path d="M720.103594 65.387872c89.395825 0 166.323675 33.375935 202.159605 51.883899 23.705954-11.085978 37.569927-19.917961 37.569926-19.917961S859.659321 33.425935 736.085562 33.425935s-223.749563 28.619944-223.749563 63.927875c0 2.423995 0.569999 4.811991 1.489997 7.165986 33.897934-22.989955 113.485778-39.131924 206.277598-39.131924z" fill="#8CC63F" p-id="4594"></path><path d="M16.054969 784.586468c0 123.573759 99.863805 223.749563 223.437563 223.749563s223.437564-100.177804 223.437564-223.749563V736.638561c0-88.267828-70.823862-159.821688-159.089689-159.821688-22.743956 0-43.975914 4.823991-63.561876 13.387974a160.281687 160.281687 0 0 0-64.163875-13.387974c-88.265828 0-160.055687 71.55386-160.055687 159.821688v47.947907h-0.004z" fill="#C1272D" p-id="4595"></path><path d="M303.836407 576.816873c-8.137984 0-15.42597 0.819998-23.231955 2.005996 76.80985 11.637977 136.379734 77.753848 136.379734 157.815692v47.947907c0 115.469774-87.755829 210.459589-200.04961 222.425565 7.879985 0.839998 15.001971 1.321997 23.105955 1.321998 123.573759 0 222.883565-100.177804 222.883565-223.749563v-47.947907c0.004-88.265828-70.819862-159.819688-159.087689-159.819688z" fill="#CD5257" p-id="4596"></path><path d="M180.236648 576.816873c8.137984 0 13.923973 0.819998 21.727958 2.005996-76.80985 11.637977-137.881731 77.753848-137.881731 157.815692v47.947907c0 115.469774 91.803821 210.459589 204.095601 222.425565-7.879985 0.839998-18.069965 1.321997-26.173949 1.321998-123.573759 0-225.951559-100.177804-225.951558-223.749563v-47.947907c0.002-88.265828 75.917852-159.819688 164.183679-159.819688z" fill="#57090C" p-id="4597"></path><path d="M561.073904 784.586468c0 123.573759 99.863805 223.749563 223.437564 223.749563s223.437564-100.177804 223.437563-223.749563V736.638561c0-88.267828-71.63786-159.821688-159.903687-159.821688a159.349689 159.349689 0 0 0-63.969875 13.387974c-19.587962-8.563983-40.80992-13.387974-63.553876-13.387974-88.265828 0-159.445689 71.55386-159.445689 159.821688v47.947907z" fill="#C1272D" p-id="4598"></path><path d="M848.043344 576.816873c-8.137984 0-17.105967 0.819998-24.911952 2.005996 76.80985 11.637977 134.699737 77.753848 134.699737 157.815692v47.947907c0 115.469774-86.479831 210.459589-198.773612 222.425565 7.879985 0.839998 16.451968 1.321997 24.557953 1.321998 123.573759 0 224.333562-100.177804 224.333561-223.749563v-47.947907c-0.002-88.265828-71.63786-159.819688-159.905687-159.819688z" fill="#CD5257" p-id="4599"></path><path d="M724.441585 576.816873c8.137984 0 13.285974 0.819998 21.089959 2.005996-76.80985 11.637977-138.519729 77.753848-138.51973 157.815692v47.947907c0 115.469774 92.03582 210.459589 204.327601 222.425565-7.879985 0.839998-17.141967 1.321997-25.24595 1.321998-123.573759 0-225.021561-100.177804-225.021561-223.749563v-47.947907c0.002-88.265828 75.103853-159.819688 163.369681-159.819688z" fill="#57090C" p-id="4600"></path><path d="M135.964734 932.758178c-44.335913-29.709942-70.807862-78.685846-70.807861-132.97774H96.480812c0 43.851914 21.277958 82.875838 56.921888 106.761791l-17.437966 26.215949zM224.874561 960.068125c-18.793963 0-36.233929-3.057994-53.281896-9.085982l10.495979-29.531943a128.425749 128.425749 0 0 0 42.789917 7.291986v31.325939h-0.004zM679.357673 932.758178c-44.337913-29.713942-70.805862-78.685846-70.805862-132.97774h31.321939c0 43.851914 21.277958 82.875838 56.921889 106.761791l-17.437966 26.215949zM767.8055 960.068125c-18.793963 0-36.00193-3.057994-53.051896-9.083982l10.37798-29.533943a127.721751 127.721751 0 0 0 42.673916 7.293986v31.323939z" fill="#FFFFFF" p-id="4601"></path><path d="M847.521345 561.154904a173.097662 173.097662 0 0 0-55.427892 9.089982c-8.255984-46.929908-23.147955-92.721819-44.227914-135.377735-33.905934-68.609866-83.961836-129.449747-144.753717-175.937657l-77.541849-59.295884V138.03573c43.435915 26.505948 129.159748 38.907924 210.513589 38.907924 126.689753 0 227.927555-63.677876 232.175547-66.38787l20.687959-13.201974-20.687959-13.201974c-4.247992-2.711995-105.485794-66.38987-232.173547-66.389871-61.179881 0-118.897768 6.863987-162.517682 19.325963-19.809961 5.659989-35.80993 12.181976-47.995907 19.525961V0h-31.321938v203.341603l-72.689858 55.587891c-60.793881 46.487909-110.847784 107.32579-144.753718 175.937657-21.095959 42.683917-35.99193 88.509827-44.245913 135.473735a173.291662 173.291662 0 0 0-55.795891-9.185982c-96.675811 0-175.327658 78.721846-175.327658 175.483657v47.947907C1.436997 916.59821 108.694788 1023.998 240.53453 1023.998s239.099533-107.39979 239.099533-239.411532V736.638561c0-96.759811-78.627846-175.483657-175.275657-175.483657-13.235974 0-26.277949 1.505997-39.031924 4.439991 8.027984-40.473921 21.307958-79.917844 39.557923-116.851771 31.785938-64.317874 78.709846-121.351763 135.701734-164.931678l71.74786-54.867893 71.74986 54.867893c56.989889 43.579915 103.915797 100.613803 135.699735 164.931678 18.263964 36.957928 31.549938 76.427851 39.573923 116.927771a174.439659 174.439659 0 0 0-39.491923-4.515991c-96.771811 0-175.499657 78.721846-175.499657 175.483657v47.947907C544.365937 916.59821 651.623727 1023.998 783.46547 1023.998s239.099533-107.39979 239.099533-239.411532V736.638561c0-96.761811-78.523847-175.483657-175.043658-175.483657zM304.358406 592.478843c79.373845 0 143.951719 64.669874 143.951718 144.161718v47.947907c0 114.739776-93.207818 208.089594-207.775594 208.089593S32.758936 899.326244 32.758936 784.586468V736.638561c0-79.489845 64.599874-144.161718 144.003719-144.161718 17.599966 0 34.815932 3.219994 51.2819 9.543981a497.669028 497.669028 0 0 0-2.867995 41.14392h-17.007967v31.323939h64.733874v-31.323939h-16.397968c0.427999-14.559972 1.577997-29.105943 3.365993-43.573915a142.333722 142.333722 0 0 1 44.487914-7.111986zM582.173863 67.207869c40.90192-11.685977 95.561813-18.121965 153.913699-18.121965 82.609839 0 155.205697 30.199941 191.243627 48.265906-36.03793 18.067965-108.631788 48.265906-191.243627 48.265906-58.349886 0-113.011779-6.435987-153.913699-18.121965-14.817971-4.231992-25.77195-8.585983-33.809934-12.647975h106.677792v-31.319939h-113.333779c8.261984-5.02799 21.065959-10.777979 40.465921-16.319968z m409.069201 717.378599c0 114.739776-93.207818 208.089594-207.775594 208.089593s-207.775594-93.347818-207.775594-208.089593V736.638561c0-79.489845 64.677874-144.161718 144.177718-144.161718a142.879721 142.879721 0 0 1 44.949912 7.233986 470.299081 470.299081 0 0 1 3.335994 43.453915h-17.055967v31.323939h62.645878v-31.323939h-14.243973a501.60102 501.60102 0 0 0-2.885994-41.27192c16.365968-6.243988 33.455935-9.415982 50.905901-9.415981 79.247845 0 143.719719 64.669874 143.719719 144.161718v47.947907z" fill="" p-id="4602"></path></svg>